<?xml version="1.0" standalone="no"?>
<!DOCTYPE svg PUBLIC "-//W3C//DTD SVG 20010904//EN"
 "http://www.w3.org/TR/2001/REC-SVG-20010904/DTD/svg10.dtd">
<svg version="1.0" xmlns="http://www.w3.org/2000/svg"
 width="984.000000pt" height="984.000000pt" viewBox="0 0 984.000000 984.000000"
 preserveAspectRatio="xMidYMid meet">
<metadata>
Created by potrace 1.14, written by Peter Selinger 2001-2017
</metadata>
<g transform="translate(0.000000,984.000000) scale(0.100000,-0.100000)"
fill="#000000" stroke="none">
<path d="M8105 9832 c-3 -3 -12 -7 -20 -8 -32 -5 -92 -28 -117 -45 -14 -11
-31 -19 -37 -19 -6 0 -11 -4 -11 -10 0 -5 -5 -10 -11 -10 -33 0 -160 -175
-173 -237 -1 -10 -6 -25 -9 -33 -5 -13 -16 -55 -22 -85 -2 -6 -12 -49 -24 -96
-12 -48 -23 -95 -25 -105 -2 -11 -13 -55 -25 -99 -11 -44 -22 -91 -25 -105 -3
-14 -9 -40 -15 -57 -5 -18 -8 -33 -5 -33 3 0 0 -8 -5 -17 -5 -10 -12 -34 -15
-53 -3 -19 -10 -51 -16 -70 -6 -19 -13 -46 -16 -60 -3 -14 -19 -81 -36 -150
-16 -69 -32 -132 -33 -140 -2 -8 -4 -15 -5 -15 -1 0 -3 -8 -5 -19 -8 -42 -27
-122 -32 -136 -3 -8 -7 -24 -9 -35 -8 -58 -68 -272 -82 -293 -35 -54 43 -52
-1669 -51 l-1589 0 -32 22 c-33 23 -57 67 -55 101 1 27 13 80 57 255 15 57 28
114 31 125 2 12 4 21 5 21 1 0 3 7 5 15 8 36 47 200 76 317 17 70 32 134 34
142 2 9 20 81 40 161 20 80 37 176 39 215 4 120 -48 253 -132 340 -65 68 -86
83 -151 113 -132 61 -281 63 -408 6 -17 -8 -36 -14 -42 -14 -6 0 -11 -4 -11
-8 0 -4 -15 -16 -32 -27 -46 -27 -120 -108 -150 -163 -24 -45 -52 -115 -54
-137 0 -5 -5 -28 -9 -50 -12 -55 -12 -55 -15 -57 -2 -3 -6 -21 -14 -58 -8 -34
-13 -54 -31 -125 -49 -197 -97 -392 -98 -407 -1 -10 -5 -18 -10 -18 -4 0 -6
-4 -3 -9 3 -4 -3 -39 -14 -77 -10 -38 -21 -80 -23 -94 -3 -14 -28 -117 -56
-230 -28 -113 -53 -214 -55 -225 -2 -11 -18 -76 -35 -145 -18 -69 -34 -134
-36 -145 -3 -11 -12 -47 -20 -80 -9 -33 -17 -69 -20 -80 -5 -24 -21 -93 -28
-120 -3 -11 -13 -51 -22 -90 -9 -38 -19 -77 -21 -85 -2 -8 -10 -42 -19 -75
-15 -59 -19 -77 -29 -124 -3 -13 -14 -58 -25 -100 -11 -42 -22 -87 -25 -101
-2 -14 -16 -72 -31 -130 -15 -58 -29 -113 -31 -123 -2 -10 -6 -27 -9 -37 -3
-10 -8 -28 -10 -39 -10 -46 -13 -58 -24 -96 -5 -22 -13 -55 -16 -74 -3 -19 -8
-37 -10 -41 -2 -3 -6 -17 -9 -31 -3 -13 -17 -70 -31 -127 -14 -56 -27 -110
-28 -120 -2 -9 -9 -35 -15 -57 -6 -22 -13 -51 -16 -65 -3 -14 -17 -72 -31
-130 -15 -58 -28 -113 -30 -123 -2 -10 -7 -27 -10 -37 -3 -10 -7 -27 -9 -37
-2 -10 -23 -94 -45 -186 -23 -92 -43 -176 -45 -185 -1 -9 -6 -24 -9 -32 -3 -8
-8 -28 -11 -45 -10 -51 -16 -76 -42 -173 -13 -52 -26 -104 -28 -117 -2 -12
-11 -49 -20 -81 -8 -32 -18 -72 -22 -89 -4 -16 -8 -34 -10 -40 -3 -11 -7 -28
-24 -100 -6 -27 -13 -57 -16 -65 -8 -31 -26 -106 -29 -120 -2 -8 -10 -42 -18
-75 -9 -33 -18 -71 -21 -85 -3 -14 -7 -34 -10 -45 -10 -37 -67 -270 -71 -285
-1 -8 -8 -33 -14 -55 -6 -22 -12 -51 -15 -65 -2 -14 -5 -25 -6 -25 -1 0 -3 -8
-5 -18 -6 -34 -28 -122 -33 -137 -8 -23 -20 -73 -57 -240 -8 -36 -18 -72 -21
-80 -3 -8 -8 -26 -10 -40 -3 -14 -12 -52 -21 -85 -8 -33 -17 -68 -19 -78 -2
-9 -6 -25 -8 -35 -2 -9 -12 -46 -21 -82 -16 -62 -20 -78 -30 -125 -10 -41 -15
-64 -53 -220 -138 -562 -185 -752 -187 -765 -2 -8 -4 -15 -5 -15 -1 0 -3 -7
-5 -16 -1 -8 -17 -74 -34 -145 -18 -72 -33 -137 -34 -145 -2 -7 -6 -20 -10
-27 -5 -6 -5 -17 -2 -22 3 -6 1 -10 -5 -10 -6 0 -9 -4 -6 -8 3 -5 1 -26 -5
-47 -6 -20 -12 -45 -14 -54 -7 -28 -55 -225 -60 -241 -6 -24 -47 -194 -49
-205 -1 -5 -5 -19 -9 -30 -3 -11 -8 -31 -11 -45 -2 -14 -14 -63 -27 -110 -22
-87 -31 -242 -16 -305 15 -66 79 -176 134 -230 31 -30 64 -57 75 -61 10 -3 18
-9 18 -14 0 -4 8 -10 18 -13 9 -3 48 -17 85 -31 58 -21 82 -24 165 -22 69 2
112 9 149 24 191 74 299 214 339 437 2 17 9 44 14 60 12 36 60 234 74 300 2
11 14 58 26 105 12 47 23 92 25 100 2 8 22 89 45 180 22 91 43 174 45 185 4
25 3 18 64 270 29 116 59 239 67 275 31 131 48 160 102 181 13 5 701 9 1610 9
1574 0 1587 0 1620 -20 54 -33 69 -88 47 -175 -2 -11 -9 -40 -16 -65 -6 -25
-12 -53 -14 -63 -2 -10 -7 -27 -10 -37 -3 -10 -8 -28 -10 -39 -9 -40 -13 -56
-45 -186 -18 -71 -34 -136 -35 -145 -2 -8 -4 -15 -5 -15 -1 0 -3 -11 -6 -25
-2 -14 -15 -68 -29 -121 -14 -54 -27 -108 -29 -120 -3 -13 -5 -24 -6 -24 -1 0
-3 -10 -6 -23 -2 -12 -13 -57 -24 -101 -11 -43 -23 -88 -25 -100 -3 -11 -7
-30 -10 -42 -2 -11 -7 -29 -10 -39 -3 -10 -8 -29 -10 -42 -3 -13 -8 -36 -12
-53 -10 -44 -10 -124 0 -170 5 -22 10 -49 13 -60 9 -46 67 -145 111 -192 104
-109 216 -157 368 -157 98 1 167 20 254 71 52 30 140 117 161 159 8 16 19 32
25 36 5 4 6 8 1 8 -4 0 -2 10 6 22 13 20 24 60 55 183 2 11 5 26 5 33 1 6 5
12 10 12 5 0 7 4 4 8 -3 5 22 116 54 248 32 131 61 250 64 264 9 45 88 365 93
380 3 8 7 22 8 30 1 8 26 110 55 225 28 116 54 221 56 235 3 14 8 34 11 45 4
11 7 22 8 25 0 3 7 28 14 56 7 29 14 60 16 70 2 11 4 21 5 24 1 3 2 9 1 13 -1
4 3 16 8 25 5 9 11 31 14 47 3 17 19 86 36 155 17 69 34 134 36 145 3 11 19
76 35 145 17 69 33 134 35 144 3 11 25 103 51 205 25 102 47 195 48 206 1 12
5 25 8 30 5 9 19 66 20 80 0 2 9 37 19 77 11 40 22 84 25 98 3 14 21 88 40
165 19 77 36 149 39 160 2 11 4 20 5 20 1 0 4 11 6 25 3 14 9 43 15 65 6 22
13 49 16 60 2 11 5 25 7 30 2 6 7 28 11 50 12 55 12 55 15 58 1 2 4 12 13 52
3 11 28 114 56 229 28 116 53 219 55 230 3 12 12 49 21 83 9 35 18 71 20 80 2
10 29 121 60 248 31 126 59 236 61 245 1 8 12 53 24 100 11 47 23 94 25 105 2
11 5 22 6 25 1 3 3 10 4 15 2 6 4 12 5 15 2 6 6 24 13 60 3 14 15 63 27 110
12 47 23 92 25 100 2 8 8 34 15 58 6 24 13 55 15 70 3 15 13 59 24 97 11 39
20 72 21 75 0 3 5 21 10 40 5 19 11 46 14 60 2 14 14 66 26 115 12 50 22 96
23 103 0 6 4 12 9 12 5 0 7 4 4 8 -3 5 2 35 11 68 8 32 16 66 18 74 2 8 8 35
15 60 7 25 13 52 15 60 2 8 26 110 54 225 55 225 61 252 62 260 0 2 5 19 10
37 6 18 12 42 14 53 3 11 27 111 55 222 27 111 55 224 61 250 6 26 12 55 15
63 2 8 15 65 29 125 14 61 30 124 35 140 8 28 47 182 55 223 2 9 19 80 39 157
19 77 38 155 41 174 3 19 8 37 10 41 2 3 6 17 8 31 3 13 10 44 17 69 7 25 13
52 15 60 2 8 19 80 39 160 30 123 35 158 31 230 -6 133 -52 235 -147 329 -60
60 -166 116 -248 131 -56 11 -185 12 -195 2z m-1101 -2902 c47 -24 70 -64 69
-116 -1 -25 -6 -51 -12 -58 -6 -7 -9 -15 -6 -18 3 -2 -4 -34 -15 -71 -10 -37
-19 -70 -19 -72 -1 -9 -10 -46 -37 -160 -14 -60 -28 -117 -29 -125 -2 -8 -4
-15 -5 -15 -2 0 -5 -13 -13 -55 -3 -14 -26 -108 -52 -210 -26 -102 -48 -194
-51 -205 -8 -38 -13 -60 -29 -125 -9 -35 -17 -72 -18 -82 -2 -10 -6 -21 -10
-24 -4 -4 -7 -18 -7 -31 0 -31 -48 -82 -85 -90 -16 -3 -739 -6 -1605 -6 -1715
-1 -1609 -4 -1653 55 -27 37 -27 91 2 186 5 17 8 32 6 32 -2 0 2 18 10 39 7
22 16 52 19 68 3 15 14 65 25 110 11 45 23 92 25 105 3 13 10 41 16 63 10 39
15 58 24 100 3 11 16 67 31 125 14 58 44 182 67 275 22 94 45 187 50 207 11
48 52 96 89 105 16 5 739 8 1607 8 1362 -1 1581 -3 1606 -15z m-3526 -2374 c7
-4 12 -4 12 1 0 4 29 8 65 8 36 0 65 -4 65 -8 0 -5 5 -5 12 -1 14 9 76 10 84
1 4 -4 12 -4 17 0 17 10 240 10 255 0 6 -5 12 -6 12 -1 0 5 31 9 70 9 38 0 70
-3 70 -7 0 -4 11 -3 25 2 15 6 26 6 30 -1 4 -5 11 -6 18 -2 17 10 210 10 225
0 6 -5 12 -6 12 -1 0 5 29 9 65 9 36 0 65 -4 65 -8 0 -5 5 -5 12 -1 14 9 76
10 84 1 4 -4 12 -4 17 0 17 10 240 10 255 0 6 -5 12 -6 12 -1 0 5 31 9 70 9
38 0 70 -4 70 -8 0 -4 8 -4 18 0 21 11 133 10 150 0 6 -5 12 -5 12 0 0 4 31 8
70 8 38 0 70 -3 70 -7 0 -4 11 -3 25 2 15 6 26 6 30 -1 4 -5 11 -6 18 -2 17
10 210 10 225 0 6 -5 12 -6 12 -1 0 5 29 9 65 9 36 0 65 -4 65 -8 0 -5 5 -5
12 -1 14 9 76 10 84 1 4 -4 12 -4 17 0 17 10 240 10 255 0 6 -5 12 -6 12 -1 0
5 28 8 63 6 34 -1 71 -3 81 -3 37 0 78 -30 95 -70 18 -38 17 -42 -6 -142 -37
-159 -44 -193 -45 -204 0 -5 -4 -15 -8 -23 -4 -8 -11 -32 -14 -54 -4 -21 -9
-42 -12 -47 -2 -5 -7 -21 -9 -36 -2 -16 -12 -55 -21 -88 -17 -64 -22 -85 -30
-125 -2 -14 -7 -32 -11 -40 -3 -8 -7 -22 -8 -30 -1 -8 -5 -26 -8 -40 -3 -14
-8 -35 -11 -48 -3 -13 -8 -32 -11 -42 -3 -10 -8 -27 -10 -37 -3 -17 -42 -179
-51 -213 -23 -91 -35 -139 -38 -157 -2 -12 -9 -31 -16 -42 -6 -12 -8 -21 -4
-21 13 0 -20 -32 -50 -48 -28 -15 -169 -16 -1611 -17 -1690 -2 -1623 -3 -1667
47 -32 37 -32 67 -4 187 15 64 28 121 30 126 1 6 7 28 11 50 12 55 12 55 14
58 2 1 4 11 6 22 2 11 24 101 49 200 25 99 47 191 50 205 12 57 68 286 73 300
4 8 8 26 10 39 3 18 52 206 53 206 0 0 3 9 6 20 7 28 51 58 85 59 16 1 29 3
29 6 0 8 214 5 228 -4z"/>
</g>
</svg>
